<svg width="24.000000" height="24.000000" viewBox="0 0 24 24" fill="none" xmlns="http://www.w3.org/2000/svg" xmlns:xlink="http://www.w3.org/1999/xlink">
	<desc>
			Created with Pixso.
	</desc>
	<defs/>
	<rect id="Interface, Essential/Arrows, Round" width="24.000000" height="24.000000" fill="#FFFFFF" fill-opacity="0"/>
	<path id="Path" d="M9.75 10L13.99 10L13.99 14.24" stroke="#19191F" stroke-opacity="1.000000" stroke-width="1.500000" stroke-linejoin="round" stroke-linecap="round"/>
	<path id="Path" d="M14 10L6.47 17.52C5.94 18.05 5.09 18.05 4.56 17.52C3.23 16.19 2.48 14.39 2.47 12.51C2.47 11.28 2.71 10.05 3.19 8.89C3.65 7.75 4.34 6.68 5.27 5.76C6.93 4.1 9.22 3.07 11.75 3.07C14.28 3.07 16.57 4.1 18.23 5.76C19.89 7.42 20.92 9.71 20.92 12.24C20.92 14.77 19.89 17.06 18.23 18.72C16.57 20.38 14.28 21.41 11.75 21.41C10.76 21.41 9.78 21.24 8.83 20.92" stroke="#19191F" stroke-opacity="1.000000" stroke-width="1.500000" stroke-linejoin="round" stroke-linecap="round"/>
</svg>
