<svg width="80.000000" height="80.000000" viewBox="0 0 80 80" fill="none" xmlns="http://www.w3.org/2000/svg" xmlns:xlink="http://www.w3.org/1999/xlink">
	<desc>
			Created with Pixso.
	</desc>
	<defs/>
	<rect id="Interface, Essential/Bell, Notifications" width="80.000000" height="80.000000" fill="#FFFFFF" fill-opacity="0"/>
	<path id="Path" d="M31.89 63.36L32.29 64.51C33.66 68.5 38.01 70.62 42 69.25C45.99 67.88 48.11 63.53 46.74 59.54L46.34 58.39" stroke="#19191F" stroke-opacity="1.000000" stroke-width="3.000000" stroke-linejoin="round" stroke-linecap="round"/>
	<path id="Path" d="M36.61 17.34L35.62 14.45C34.52 11.26 31.04 9.56 27.85 10.66C24.66 11.76 22.96 15.24 24.06 18.43L25.05 21.32" stroke="#19191F" stroke-opacity="1.000000" stroke-width="3.000000" stroke-linejoin="round" stroke-linecap="round"/>
	<path id="Path" d="M27.87 20.02L33.59 18.05C41.47 15.33 50.07 19.53 52.79 27.41L55.82 36.23C56.39 37.9 57.61 39.27 59.2 40.05L61.91 41.37C63.51 42.14 64.72 43.52 65.3 45.19C66.43 48.48 64.68 52.07 61.39 53.2L27.61 64.83C24.32 65.97 20.73 64.22 19.6 60.93C19.02 59.25 19.13 57.42 19.9 55.83L21.23 53.12C22.01 51.53 22.12 49.7 21.54 48.02L18.51 39.22C15.79 31.33 19.99 22.73 27.87 20.02Z" stroke="#19191F" stroke-opacity="1.000000" stroke-width="3.000000" stroke-linejoin="round"/>
</svg>
