<svg width="56.000000" height="56.000000" viewBox="0 0 56 56" fill="none" xmlns="http://www.w3.org/2000/svg" xmlns:xlink="http://www.w3.org/1999/xlink">
	<desc>
			Created with Pixso.
	</desc>
	<defs/>
	<rect id="Frame 77" rx="27.500000" width="55.000000" height="55.000000" transform="translate(0.500000 0.500000)" fill="#FFFFFF" fill-opacity="1.000000"/>
	<rect id="Construction, Tools/project-plan-pen-house" width="32.000000" height="32.000000" transform="translate(12.000000 12.000000)" fill="#FFFFFF" fill-opacity="0"/>
	<path id="Path" d="M36 22.66L34.66 22.66" stroke="#19191F" stroke-opacity="1.000000" stroke-width="2.000000" stroke-linejoin="round" stroke-linecap="round"/>
	<path id="Path" d="M30.66 22.66L29.33 22.66" stroke="#19191F" stroke-opacity="1.000000" stroke-width="2.000000" stroke-linejoin="round" stroke-linecap="round"/>
	<path id="Path" d="M24 22.66L25.33 22.66" stroke="#19191F" stroke-opacity="1.000000" stroke-width="2.000000" stroke-linejoin="round" stroke-linecap="round"/>
	<path id="Path" d="M20 40L37.33 40C38.8 40 40 38.8 40 37.33L40 21.33C40 19.86 38.8 18.66 37.33 18.66L24 18.66" stroke="#19191F" stroke-opacity="1.000000" stroke-width="2.000000" stroke-linejoin="round" stroke-linecap="round"/>
	<path id="Path" d="M35.27 33.33C35.27 34.06 34.67 34.66 33.93 34.66L29.93 34.66C29.2 34.66 28.6 34.06 28.6 33.33L28.6 30.96C28.6 30.46 28.83 29.98 29.22 29.66L30.85 28.36C31.46 27.87 32.32 27.87 32.93 28.36L34.64 29.73C35.03 30.04 35.27 30.52 35.27 31.03L35.27 33.33Z" stroke="#19191F" stroke-opacity="1.000000" stroke-width="2.000000" stroke-linejoin="round"/>
	<circle id="Oval" cx="20.000000" cy="36.000000" r="4.000000" stroke="#19191F" stroke-opacity="1.000000" stroke-width="2.000000" stroke-linejoin="round"/>
	<path id="Path" d="M16 36L16 18.66C16 16.45 17.79 14.66 20 14.66C22.2 14.66 24 16.45 24 18.66L24 36" stroke="#19191F" stroke-opacity="1.000000" stroke-width="2.000000" stroke-linejoin="round" stroke-linecap="round"/>
	<path id="Path" d="M20 35.99C20.03 35.99 20.06 35.97 20.06 35.93C20.06 35.89 20.03 35.86 19.99 35.86C19.98 35.86 19.96 35.87 19.95 35.88C19.94 35.89 19.93 35.91 19.93 35.93C19.93 35.97 19.96 36 20 35.99Z" stroke="#19191F" stroke-opacity="1.000000" stroke-width="2.000000" stroke-linejoin="round"/>
	<rect id="Frame 77" rx="27.500000" width="55.000000" height="55.000000" transform="translate(0.500000 0.500000)" stroke="#19191F" stroke-opacity="0.120000" stroke-width="1.000000"/>
</svg>
