<svg width="24.010002" height="24.010010" viewBox="0 0 24.01 24.01" fill="none" xmlns="http://www.w3.org/2000/svg" xmlns:xlink="http://www.w3.org/1999/xlink">
	<desc>
			Created with Pixso.
	</desc>
	<defs/>
	<rect id="Interface, Essential/exit-log-out" width="24.000000" height="24.000000" transform="translate(0.004997 0.004883)" fill="#FFFFFF" fill-opacity="0"/>
	<path id="Path" d="M16 12L21 12" stroke="#19191F" stroke-opacity="1.000000" stroke-width="1.500000" stroke-linejoin="round" stroke-linecap="round"/>
	<path id="Path" d="M19 14L21 12L19 10" stroke="#19191F" stroke-opacity="1.000000" stroke-width="1.500000" stroke-linejoin="round" stroke-linecap="round"/>
	<path id="Path" d="M20 17L20 19C20 20.11 19.11 21 18 21L6 21C4.89 21 4 20.11 4 19L4 5C4 3.89 4.89 3 6 3L18 3C19.11 3 20 3.89 20 5L20 7" stroke="#19191F" stroke-opacity="1.000000" stroke-width="1.500000" stroke-linejoin="round" stroke-linecap="round"/>
	<path id="Path" d="M9 11L9 13" stroke="#19191F" stroke-opacity="1.000000" stroke-width="1.500000" stroke-linejoin="round" stroke-linecap="round"/>
	<path id="Path" d="M4 19C4 20.49 5.56 21.46 6.89 20.79L10.89 18.79C11.57 18.45 12 17.76 12 17L12 3" stroke="#19191F" stroke-opacity="1.000000" stroke-width="1.500000" stroke-linejoin="round" stroke-linecap="round"/>
</svg>
