<svg width="24.000000" height="24.000000" viewBox="0 0 24 24" fill="none" xmlns="http://www.w3.org/2000/svg" xmlns:xlink="http://www.w3.org/1999/xlink">
	<desc>
			Created with Pixso.
	</desc>
	<defs/>
	<rect id="Emails/Email, @, Mail, Mail icon" width="24.000000" height="24.000000" fill="#FFFFFF" fill-opacity="0"/>
	<path id="Path" d="M12 16C9.79 16 8 14.2 8 12C8 9.79 9.79 8 12 8C14.2 8 16 9.79 16 12C16 14.2 14.2 16 12 16ZM16 12L16 13.5C16 14.88 17.11 16 18.5 16C19.88 16 21 14.88 21 13.5L21 12C21 7.02 16.97 3 12 3C7.02 3 3 7.02 3 12C3 16.97 7.02 21 12 21C13.14 21 14.31 20.78 15.44 20.31C16.05 20.06 16.61 19.74 17.13 19.38" stroke="#19191F" stroke-opacity="1.000000" stroke-width="1.500000" stroke-linejoin="round"/>
</svg>
