<svg width="24.010010" height="24.010010" viewBox="0 0 24.01 24.01" fill="none" xmlns="http://www.w3.org/2000/svg" xmlns:xlink="http://www.w3.org/1999/xlink">
	<desc>
			Created with Pixso.
	</desc>
	<defs/>
	<rect id="Mobile, Devices/mobile-devices" width="24.000000" height="24.000000" transform="translate(0.005005 0.004883)" fill="#FFFFFF" fill-opacity="0"/>
	<path id="Path" d="M9.5 3L9.5 4.8C9.47 5.1 9.7 5.37 10 5.4L14 5.4C14.3 5.37 14.53 5.1 14.5 4.8L14.5 3" stroke="#19191F" stroke-opacity="1.000000" stroke-width="1.500000" stroke-linejoin="round" stroke-linecap="round"/>
	<path id="Path" d="M10 18L14 18" stroke="#19191F" stroke-opacity="1.000000" stroke-width="1.500000" stroke-linejoin="round" stroke-linecap="round"/>
	<path id="Path" d="M8 21C6.89 21 6 20.11 6 19L6 5C6 3.89 6.89 3 8 3L16 3C17.11 3 18 3.89 18 5L18 19C18 20.11 17.11 21 16 21L8 21Z" stroke="#19191F" stroke-opacity="1.000000" stroke-width="1.500000" stroke-linejoin="round"/>
</svg>
