<svg width="24.000000" height="24.000000" viewBox="0 0 24 24" fill="none" xmlns="http://www.w3.org/2000/svg" xmlns:xlink="http://www.w3.org/1999/xlink">
	<desc>
			Created with Pixso.
	</desc>
	<defs/>
	<rect id="Interface, Essential/Bell, Notifications" width="24.000000" height="24.000000" fill="#FFFFFF" fill-opacity="0"/>
	<path id="Path" d="M9.56 19.01L9.68 19.35C10.1 20.55 11.4 21.18 12.6 20.77C13.79 20.36 14.43 19.06 14.02 17.86L13.9 17.51" stroke="#19191F" stroke-opacity="1.000000" stroke-width="1.500000" stroke-linejoin="round" stroke-linecap="round"/>
	<path id="Path" d="M10.98 5.2L10.68 4.33C10.35 3.37 9.31 2.86 8.35 3.19C7.39 3.53 6.88 4.57 7.21 5.53L7.51 6.39" stroke="#19191F" stroke-opacity="1.000000" stroke-width="1.500000" stroke-linejoin="round" stroke-linecap="round"/>
	<path id="Path" d="M8.36 6L10.07 5.41C12.44 4.6 15.02 5.85 15.83 8.22L16.74 10.86C16.92 11.37 17.28 11.78 17.76 12.01L18.57 12.41C19.05 12.64 19.41 13.05 19.59 13.55C19.93 14.54 19.4 15.62 18.41 15.96L8.28 19.45C7.29 19.79 6.22 19.26 5.88 18.27C5.7 17.77 5.74 17.22 5.97 16.75L6.37 15.93C6.6 15.45 6.63 14.9 6.46 14.4L5.55 11.76C4.73 9.39 5.99 6.82 8.36 6Z" stroke="#19191F" stroke-opacity="1.000000" stroke-width="1.500000" stroke-linejoin="round"/>
</svg>
