<svg width="24.000000" height="24.000000" viewBox="0 0 24 24" fill="none" xmlns="http://www.w3.org/2000/svg" xmlns:xlink="http://www.w3.org/1999/xlink">
	<desc>
			Created with Pixso.
	</desc>
	<defs/>
	<rect id="Interface, Essential/menu-add-plus" width="24.000000" height="24.000000" fill="#FFFFFF" fill-opacity="0"/>
	<path id="Path" d="M19.21 6.58C19.56 6.35 20.02 6.46 20.24 6.81C22.67 10.66 22.11 15.68 18.89 18.89C15.68 22.11 10.66 22.67 6.81 20.24C6.46 20.02 6.35 19.56 6.58 19.21C6.8 18.86 7.26 18.75 7.61 18.97C10.87 21.03 15.11 20.55 17.83 17.83C20.55 15.11 21.03 10.87 18.97 7.61C18.75 7.26 18.86 6.8 19.21 6.58Z" fill="#FFFFFF" fill-opacity="1.000000" fill-rule="nonzero"/>
	<path id="Path" d="M13.26 3.06C13.36 2.66 13.76 2.4 14.16 2.49C15.23 2.74 16.25 3.16 17.18 3.75C17.53 3.97 17.64 4.43 17.41 4.78C17.19 5.13 16.73 5.24 16.38 5.02C15.6 4.52 14.73 4.16 13.83 3.96C13.42 3.86 13.17 3.46 13.26 3.06Z" fill="#FFFFFF" fill-opacity="1.000000" fill-rule="nonzero"/>
	<path id="Path" d="M3.06 13.26C3.46 13.17 3.87 13.42 3.96 13.83C4.16 14.73 4.52 15.6 5.02 16.38C5.24 16.73 5.13 17.19 4.78 17.41C4.43 17.63 3.97 17.53 3.75 17.18C3.16 16.25 2.74 15.23 2.49 14.16C2.4 13.76 2.66 13.36 3.06 13.26Z" fill="#FFFFFF" fill-opacity="1.000000" fill-rule="nonzero"/>
	<path id="Path" d="M9.83 2.49C10.23 2.4 10.63 2.66 10.73 3.06C10.82 3.46 10.57 3.86 10.16 3.96C9.26 4.16 8.39 4.52 7.61 5.02C7.26 5.24 6.8 5.13 6.58 4.78C6.35 4.43 6.46 3.97 6.81 3.75C7.74 3.16 8.76 2.74 9.83 2.49Z" fill="#FFFFFF" fill-opacity="1.000000" fill-rule="nonzero"/>
	<path id="Path" d="M3.75 6.81C3.97 6.46 4.43 6.35 4.78 6.58C5.13 6.8 5.24 7.26 5.02 7.61C4.52 8.39 4.16 9.26 3.96 10.16C3.87 10.57 3.46 10.82 3.06 10.73C2.66 10.63 2.4 10.23 2.49 9.83C2.74 8.76 3.16 7.74 3.75 6.81Z" fill="#FFFFFF" fill-opacity="1.000000" fill-rule="nonzero"/>
	<path id="Path" d="M12 9.25C12.37 9.25 12.69 9.53 12.74 9.89L12.75 10L12.75 14C12.75 14.41 12.41 14.75 12 14.75C11.62 14.75 11.3 14.46 11.25 14.1L11.25 14L11.25 10C11.25 9.58 11.58 9.25 12 9.25Z" fill="#FFFFFF" fill-opacity="1.000000" fill-rule="nonzero"/>
	<path id="Path" d="M14 11.25C14.41 11.25 14.75 11.58 14.75 12C14.75 12.37 14.46 12.69 14.1 12.74L14 12.75L10 12.75C9.58 12.75 9.25 12.41 9.25 12C9.25 11.62 9.53 11.3 9.89 11.25L10 11.25L14 11.25Z" fill="#FFFFFF" fill-opacity="1.000000" fill-rule="nonzero"/>
</svg>
