<svg width="20.008301" height="20.008301" viewBox="0 0 20.0083 20.0083" fill="none" xmlns="http://www.w3.org/2000/svg" xmlns:xlink="http://www.w3.org/1999/xlink">
	<desc>
			Created with Pixso.
	</desc>
	<defs/>
	<rect id="Interface, Essential/question-3-circle" width="20.000000" height="20.000000" transform="translate(0.003906 0.004150)" fill="#FFFFFF" fill-opacity="0"/>
	<path id="Path" d="M10 10.59L11.1 9.98C11.66 9.67 12 9.09 12 8.46C11.93 7.41 11.03 6.61 9.98 6.66C9.04 6.63 8.21 7.26 8 8.18" stroke="#19191F" stroke-opacity="1.000000" stroke-width="1.500000" stroke-linejoin="round" stroke-linecap="round"/>
	<circle id="Oval" cx="10.003906" cy="10.004150" r="7.503125" stroke="#19191F" stroke-opacity="1.000000" stroke-width="1.500000" stroke-linejoin="round"/>
	<path id="Path" d="M10 13.33C9.95 13.33 9.92 13.3 9.92 13.25C9.92 13.2 9.95 13.17 10 13.17C10.02 13.17 10.04 13.18 10.06 13.19C10.07 13.21 10.08 13.23 10.08 13.25C10.08 13.3 10.04 13.33 10 13.33Z" stroke="#19191F" stroke-opacity="1.000000" stroke-width="1.500000" stroke-linejoin="round"/>
</svg>
