<svg width="24.000000" height="24.000000" viewBox="0 0 24 24" fill="none" xmlns="http://www.w3.org/2000/svg" xmlns:xlink="http://www.w3.org/1999/xlink">
	<desc>
			Created with Pixso.
	</desc>
	<defs/>
	<rect id="Interface, Essential/Settings" width="24.000000" height="24.000000" fill="#FFFFFF" fill-opacity="0"/>
	<path id="Path" d="M14.12 14.12C12.94 15.29 11.05 15.29 9.87 14.12C8.7 12.94 8.7 11.05 9.87 9.87C11.05 8.7 12.94 8.7 14.12 9.87C15.29 11.05 15.29 12.94 14.12 14.12Z" stroke="#19191F" stroke-opacity="1.000000" stroke-width="1.500000" stroke-linejoin="round"/>
	<path id="Path" d="M18 18.72L18.72 18C19.22 17.5 19.22 16.68 18.72 16.17C18.34 15.79 18.23 15.22 18.44 14.72C18.46 14.67 18.48 14.62 18.5 14.56C18.68 14.1 19.14 13.8 19.64 13.8L19.7 13.8C20.42 13.8 20.99 13.22 20.99 12.51L20.99 11.49C20.99 10.77 20.42 10.2 19.7 10.2L19.64 10.2C19.14 10.2 18.68 9.9 18.5 9.43C18.48 9.38 18.46 9.32 18.44 9.27C18.23 8.77 18.34 8.2 18.72 7.82C19.22 7.32 19.22 6.5 18.72 6L18 5.27C17.5 4.77 16.68 4.77 16.18 5.27C15.79 5.65 15.22 5.77 14.72 5.56C14.67 5.54 14.62 5.51 14.56 5.49C14.1 5.31 13.8 4.85 13.8 4.35L13.8 4.28C13.8 3.57 13.22 3 12.51 3L11.49 3C10.77 3 10.2 3.57 10.2 4.28L10.2 4.35C10.2 4.85 9.89 5.31 9.43 5.49C9.38 5.51 9.32 5.53 9.27 5.55C8.77 5.76 8.2 5.65 7.82 5.27C7.31 4.77 6.5 4.77 5.99 5.27L5.27 5.99C4.77 6.5 4.77 7.31 5.27 7.82C5.65 8.2 5.76 8.77 5.55 9.27C5.53 9.32 5.51 9.37 5.49 9.43C5.31 9.89 4.85 10.2 4.35 10.2L4.28 10.2C3.57 10.2 3 10.77 3 11.48L3 12.51C3 13.22 3.57 13.8 4.28 13.8L4.35 13.8C4.85 13.8 5.31 14.1 5.49 14.56C5.51 14.62 5.53 14.67 5.55 14.72C5.76 15.22 5.65 15.79 5.27 16.17C4.77 16.68 4.77 17.49 5.27 18L5.99 18.72C6.49 19.22 7.31 19.22 7.81 18.72C8.2 18.34 8.77 18.23 9.27 18.43C9.32 18.46 9.37 18.48 9.43 18.5C9.89 18.68 10.19 19.14 10.19 19.64L10.19 19.7C10.19 20.42 10.77 20.99 11.48 20.99L12.5 20.99C13.22 20.99 13.79 20.42 13.79 19.7L13.79 19.64C13.79 19.14 14.09 18.68 14.56 18.5C14.61 18.48 14.67 18.46 14.72 18.43C15.22 18.23 15.79 18.34 16.18 18.72C16.68 19.22 17.5 19.22 18 18.72Z" stroke="#19191F" stroke-opacity="1.000000" stroke-width="1.500000" stroke-linejoin="round"/>
</svg>
