<svg width="101.000000" height="28.000000" viewBox="0 0 101 28" fill="none" xmlns="http://www.w3.org/2000/svg" xmlns:xlink="http://www.w3.org/1999/xlink">
	<desc>
			Created with Pixso.
	</desc>
	<defs>
		<clipPath id="clip86_3821">
			<rect id="Frame 2" rx="-0.333333" width="18.666668" height="27.333334" transform="translate(0.333333 0.333333)" fill="white" fill-opacity="0"/>
		</clipPath>
	</defs>
	<rect id="Frame 3" rx="-0.333333" width="100.333336" height="27.333334" transform="translate(0.333333 0.333333)" fill="#FFFFFF" fill-opacity="0"/>
	<rect id="Frame 2" rx="-0.333333" width="18.666668" height="27.333334" transform="translate(0.333333 0.333333)" fill="#FFFFFF" fill-opacity="0"/>
	<g clip-path="url(#clip86_3821)">
		<path id="Vector 2" d="M7.18 1.72C6.96 1.56 6.42 1.19 6.06 1.01C5.61 0.79 4.63 0.2 3.44 0.89C2.48 1.45 0.83 2.4 0.12 2.81L18.54 14.57C18.45 13.01 18.36 9.76 18 9.22C17.47 8.41 17.3 8.2 16.24 7.52C15.56 7.07 9.92 3.49 7.18 1.72Z" fill="#19191F" fill-opacity="1.000000" fill-rule="evenodd"/>
		<path id="Vector 3" d="M12.38 26.47C12.61 26.63 13.14 26.99 13.5 27.17C13.95 27.39 14.93 27.98 16.13 27.29C17.08 26.74 18.73 25.78 19.44 25.38L1.03 13.62C1.11 15.17 1.21 18.42 1.56 18.96C2.09 19.78 2.26 19.98 3.32 20.67C4.01 21.11 9.64 24.69 12.38 26.47Z" fill="#19191F" fill-opacity="1.000000" fill-rule="evenodd"/>
		<path id="Vector 1" d="M7.19 1.72C8.55 2.64 11.46 4.88 12.92 8.36C13.64 10.08 13.76 16.05 14.09 19.69C15.29 19 17.77 17.57 18.12 17.36C18.55 17.11 18.7 16.55 18.64 15.81C18.57 15.07 18.33 10.52 18.21 9.87C18.08 9.22 17.79 8.52 16.5 7.68C15.47 7.01 9.86 3.43 7.19 1.72Z" fill="#19191F" fill-opacity="1.000000" fill-rule="evenodd"/>
		<path id="Vector 4" d="M12.38 26.46C11.01 25.54 8.11 23.3 6.64 19.82C5.92 18.1 5.8 12.13 5.47 8.5C4.27 9.18 1.8 10.62 1.45 10.82C1.01 11.07 0.86 11.63 0.93 12.37C0.99 13.11 1.23 17.67 1.36 18.32C1.48 18.97 1.77 19.66 3.06 20.5C4.09 21.17 9.7 24.76 12.38 26.46Z" fill="#19191F" fill-opacity="1.000000" fill-rule="evenodd"/>
	</g>
	<path id="rteco" d="M35.46 16L35.46 18.15L36.91 18.15L36.91 19.88L35.46 19.88L35.46 22.9C35.46 23.21 35.53 23.42 35.66 23.55C35.8 23.68 36.02 23.74 36.31 23.74Q36.71 23.74 36.91 23.68L36.91 25.29C36.63 25.41 36.26 25.47 35.81 25.47C35.11 25.47 34.55 25.27 34.14 24.88Q34.02 24.76 33.92 24.62Q33.52 24.07 33.52 23.24L33.52 19.88L32.22 19.88L32.22 18.15L32.58 18.15Q33.06 18.15 33.33 17.92L33.33 17.92L33.33 17.92Q33.37 17.88 33.41 17.84Q33.46 17.78 33.51 17.71L33.51 17.71L33.51 17.71Q33.7 17.42 33.7 17.01L33.7 16L35.46 16ZM44.96 23.3L43.34 22.81C43.07 23.55 42.52 23.91 41.69 23.91Q41.27 23.91 40.92 23.76Q40.66 23.65 40.43 23.45Q40.17 23.21 40.03 22.91Q39.89 22.62 39.88 22.27L45.04 22.27L45.05 22.17L45.05 21.93C45.06 21.84 45.07 21.75 45.07 21.67Q45.07 20.12 44.31 19.16Q44.22 19.04 44.11 18.93Q43.93 18.73 43.71 18.57Q42.84 17.93 41.5 17.93Q40.89 17.93 40.35 18.12Q39.62 18.39 39.01 19Q38.68 19.33 38.46 19.72Q37.95 20.58 37.95 21.73Q37.95 23.03 38.55 23.95L38.55 23.95Q38.76 24.27 39.04 24.55Q39.52 25 40.09 25.26L40.09 25.26Q40.81 25.59 41.68 25.59Q42.84 25.59 43.65 25.05Q43.73 25 43.81 24.94C44.38 24.51 44.77 23.96 44.96 23.3ZM49.84 19.74C49.33 19.74 48.89 19.92 48.54 20.28C48.19 20.64 48.01 21.13 48.01 21.76C48.01 22.38 48.19 22.88 48.54 23.25C48.9 23.62 49.34 23.8 49.86 23.8Q50.52 23.8 50.92 23.48Q50.94 23.46 50.96 23.45C51.23 23.2 51.42 22.91 51.52 22.58L53.23 23.15C53.06 23.82 52.68 24.39 52.09 24.87C51.5 25.35 50.76 25.59 49.86 25.59C48.78 25.59 47.88 25.23 47.15 24.5Q46.72 24.07 46.46 23.55Q46.06 22.75 46.06 21.76Q46.06 20.69 46.5 19.86Q46.75 19.4 47.13 19.02C47.85 18.29 48.74 17.93 49.8 17.93C50.72 17.93 51.47 18.17 52.06 18.65C52.65 19.12 53.02 19.69 53.19 20.37L51.44 20.95Q51.26 20.33 50.85 20.03Q50.45 19.74 49.84 19.74ZM57.84 17.93C56.75 17.93 55.85 18.29 55.12 19.02C54.41 19.74 54.05 20.65 54.05 21.76C54.05 22.86 54.41 23.78 55.12 24.5C55.85 25.23 56.75 25.59 57.84 25.59C58.92 25.59 59.82 25.23 60.54 24.5C61.26 23.78 61.62 22.86 61.62 21.76C61.62 20.65 61.26 19.74 60.54 19.02C59.82 18.29 58.92 17.93 57.84 17.93ZM31.4 18.12L31.4 20.09Q31.1 20.03 30.81 20.03Q30.14 20.03 29.68 20.34L29.68 20.34Q29.56 20.41 29.46 20.51Q28.95 20.98 28.95 22.07L28.95 25.37L27 25.37L27 18.15L28.89 18.15L28.89 19.22Q29.06 18.85 29.34 18.6L29.34 18.6Q29.92 18.09 30.94 18.09Q31.1 18.09 31.4 18.12ZM42.71 19.93C42.98 20.2 43.13 20.54 43.15 20.94L39.92 20.94C39.94 20.58 40.09 20.25 40.39 19.95Q40.52 19.83 40.67 19.73Q41.04 19.52 41.53 19.52C42.05 19.52 42.44 19.65 42.71 19.93ZM57.84 23.81C57.33 23.81 56.89 23.63 56.53 23.27C56.18 22.91 56 22.4 56 21.76Q56 20.89 56.43 20.37Q56.48 20.31 56.53 20.25C56.89 19.89 57.33 19.71 57.84 19.71C58.35 19.71 58.78 19.89 59.13 20.25Q59.2 20.32 59.26 20.4Q59.67 20.92 59.67 21.76Q59.67 22.6 59.26 23.12Q59.2 23.2 59.13 23.27C58.78 23.63 58.35 23.81 57.84 23.81Z" fill="#19191F" fill-opacity="1.000000" fill-rule="evenodd"/>
	<path id="developed by" d="M28.65 11.1Q28.08 11.1 27.63 10.87Q27.56 10.83 27.49 10.79Q27.42 10.75 27.36 10.7L27.36 10.7Q26.95 10.41 26.71 9.89Q26.45 9.29 26.45 8.39L26.45 8.2Q26.45 7.35 26.72 6.77Q26.98 6.26 27.39 5.97L27.39 5.97Q27.45 5.93 27.5 5.89Q27.6 5.84 27.69 5.8Q28.12 5.6 28.65 5.6Q29.28 5.6 29.75 5.87C30.08 6.06 30.31 6.32 30.46 6.64L30.46 4L31.34 4L31.34 11L30.52 11L30.52 10Q30.48 10.11 30.42 10.21Q30.21 10.56 29.83 10.79Q29.33 11.1 28.65 11.1ZM51.35 11.04C50.99 11.04 50.69 10.99 50.45 10.87C50.23 10.75 50.06 10.57 49.95 10.33Q49.8 9.95 49.8 9.35L49.8 4L50.68 4L50.68 9.35C50.68 9.69 50.74 9.93 50.85 10.06C50.97 10.18 51.17 10.25 51.45 10.25L51.64 10.25L51.8 10.22L51.8 11C51.77 11.01 51.72 11.02 51.66 11.02C51.61 11.03 51.55 11.04 51.49 11.04C51.44 11.04 51.39 11.04 51.35 11.04ZM72.66 11.1C72.23 11.1 71.84 11 71.51 10.79C71.18 10.6 70.92 10.29 70.73 9.89Q70.46 9.29 70.46 8.39L70.46 8.2C70.46 7.64 70.55 7.16 70.74 6.77C70.93 6.39 71.19 6.1 71.52 5.89C71.85 5.7 72.23 5.6 72.66 5.6C73.09 5.6 73.46 5.69 73.77 5.87C74.09 6.06 74.33 6.32 74.48 6.64L74.48 4L75.36 4L75.36 11L74.54 11L74.54 10C74.41 10.32 74.17 10.59 73.84 10.79Q73.34 11.1 72.66 11.1ZM82.16 11.1Q81.48 11.1 80.98 10.79Q80.6 10.56 80.39 10.21Q80.33 10.11 80.28 10L80.28 11L79.46 11L79.46 4L80.34 4L80.34 6.64C80.49 6.32 80.73 6.06 81.04 5.87Q81.05 5.87 81.05 5.87L81.06 5.87Q81.53 5.6 82.16 5.6C82.82 5.6 83.35 5.81 83.75 6.25C84.16 6.69 84.36 7.33 84.36 8.2L84.36 8.39C84.36 9 84.27 9.5 84.08 9.89C83.9 10.29 83.64 10.6 83.31 10.79C82.98 11 82.6 11.1 82.16 11.1ZM35.15 11.1Q34.75 11.1 34.38 10.99L34.38 10.99Q34.13 10.92 33.89 10.81Q33.74 10.73 33.6 10.63L33.6 10.63Q33.21 10.36 32.95 9.91Q32.6 9.31 32.6 8.39L32.6 8.2C32.6 7.61 32.71 7.12 32.94 6.75Q33.18 6.33 33.54 6.07L33.54 6.07Q33.68 5.96 33.84 5.89Q34.04 5.78 34.26 5.71Q34.63 5.6 35.05 5.6C35.83 5.6 36.43 5.81 36.86 6.24Q36.92 6.3 36.98 6.37Q37.5 6.99 37.5 8.04L37.5 8.6L33.48 8.6C33.48 9.02 33.56 9.35 33.73 9.6C33.9 9.84 34.11 10.02 34.37 10.14Q34.76 10.29 35.15 10.29L35.15 10.29C35.55 10.29 35.85 10.23 36.07 10.1Q36.25 9.98 36.38 9.83Q36.48 9.7 36.54 9.54L37.4 9.54Q37.31 9.97 37.07 10.29Q36.88 10.53 36.61 10.71Q36.56 10.74 36.51 10.76L36.51 10.76Q35.92 11.1 35.15 11.1ZM46.15 11.1C45.71 11.1 45.29 11 44.89 10.81Q44.74 10.73 44.61 10.63L44.61 10.63Q44.22 10.36 43.95 9.91Q43.6 9.31 43.6 8.39L43.6 8.2C43.6 7.61 43.72 7.12 43.94 6.75C44.17 6.36 44.47 6.07 44.84 5.89Q45.05 5.78 45.26 5.71L45.26 5.71Q45.64 5.6 46.05 5.6C46.83 5.6 47.44 5.81 47.86 6.24Q47.93 6.3 47.99 6.37Q48.5 6.99 48.5 8.04L48.5 8.6L44.48 8.6C44.48 9.02 44.57 9.35 44.73 9.6C44.91 9.84 45.12 10.02 45.37 10.14C45.63 10.24 45.89 10.29 46.15 10.29C46.55 10.29 46.86 10.23 47.07 10.1C47.29 9.96 47.45 9.78 47.54 9.54L48.4 9.54C48.3 10.05 48.03 10.44 47.61 10.71C47.2 10.97 46.71 11.1 46.15 11.1ZM55.06 11.1C54.61 11.1 54.19 11 53.8 10.81Q53.64 10.72 53.5 10.62Q53.12 10.34 52.86 9.91Q52.51 9.31 52.51 8.39L52.51 8.2Q52.51 7.33 52.86 6.75Q53.1 6.37 53.44 6.11Q53.61 5.98 53.8 5.89C54.19 5.69 54.61 5.6 55.06 5.6Q55.55 5.6 55.99 5.75Q56.16 5.8 56.32 5.89C56.71 6.08 57.02 6.37 57.25 6.75Q57.61 7.33 57.61 8.2L57.61 8.39C57.61 9 57.49 9.5 57.25 9.91C57.02 10.31 56.71 10.6 56.32 10.81Q56.16 10.89 55.99 10.94L55.99 10.94Q55.55 11.1 55.06 11.1ZM58.86 13L58.86 5.7L59.68 5.7L59.68 6.7C59.86 6.34 60.11 6.07 60.43 5.89C60.75 5.69 61.13 5.6 61.56 5.6C62.22 5.6 62.76 5.81 63.16 6.25C63.56 6.69 63.76 7.33 63.76 8.2L63.76 8.39C63.76 9 63.66 9.5 63.48 9.89C63.3 10.29 63.04 10.6 62.71 10.79C62.38 11 62 11.1 61.56 11.1C61.1 11.1 60.72 11 60.42 10.79C60.12 10.6 59.89 10.35 59.74 10.04L59.74 13L58.86 13ZM67.21 11.1C66.76 11.1 66.34 11 65.95 10.81C65.56 10.61 65.25 10.31 65.01 9.91C64.77 9.52 64.66 9.01 64.66 8.39L64.66 8.2C64.66 7.61 64.77 7.12 65 6.75C65.22 6.36 65.52 6.07 65.9 5.89C66.27 5.69 66.67 5.6 67.11 5.6Q68.16 5.6 68.78 6.11Q68.85 6.17 68.92 6.24C69.34 6.66 69.56 7.27 69.56 8.04L69.56 8.6L65.54 8.6C65.54 9.02 65.62 9.35 65.79 9.6C65.96 9.84 66.17 10.02 66.43 10.14C66.69 10.24 66.95 10.29 67.21 10.29C67.61 10.29 67.91 10.23 68.13 10.1C68.35 9.96 68.5 9.78 68.6 9.54L69.46 9.54C69.35 10.05 69.09 10.44 68.67 10.71C68.25 10.97 67.77 11.1 67.21 11.1ZM40.15 11L37.95 5.7L38.93 5.7L40.65 10.1L42.21 5.7L43.15 5.7L41.15 11L40.15 11ZM86.12 13.1C86.02 13.1 85.92 13.08 85.82 13.06L85.82 12.27C85.92 12.29 86.02 12.29 86.12 12.29C86.25 12.29 86.36 12.26 86.45 12.2C86.54 12.14 86.63 12.01 86.73 11.83C86.82 11.64 86.93 11.36 87.07 11L84.82 5.7L85.8 5.7L87.52 10L89.08 5.7L90.02 5.7L88.02 11Q87.74 11.75 87.48 12.21C87.31 12.51 87.12 12.74 86.91 12.87C86.7 13.02 86.44 13.1 86.12 13.1ZM28.84 10.31C29.17 10.31 29.45 10.25 29.68 10.12C29.93 9.97 30.12 9.79 30.25 9.54C30.4 9.3 30.46 9.02 30.46 8.7L30.46 7.89Q30.46 7.58 30.35 7.31Q30.31 7.21 30.25 7.12C30.12 6.89 29.93 6.71 29.68 6.58Q29.33 6.37 28.84 6.37Q28.54 6.37 28.28 6.48Q28 6.6 27.77 6.85Q27.76 6.86 27.75 6.87L27.75 6.87Q27.33 7.34 27.33 8.2L27.33 8.39Q27.33 9.33 27.77 9.83Q28 10.09 28.3 10.21Q28.55 10.31 28.84 10.31ZM61.36 10.31Q61.68 10.31 61.95 10.19Q62.22 10.07 62.44 9.83C62.73 9.5 62.88 9.02 62.88 8.39L62.88 8.2C62.88 7.62 62.73 7.17 62.44 6.85Q62.23 6.62 61.96 6.5Q61.69 6.37 61.36 6.37Q60.88 6.37 60.51 6.58C60.27 6.71 60.08 6.89 59.94 7.12C59.8 7.35 59.74 7.61 59.74 7.89L59.74 8.7C59.74 9.02 59.8 9.3 59.94 9.54C60.08 9.79 60.27 9.97 60.51 10.12Q60.88 10.31 61.36 10.31ZM72.86 10.31C73.18 10.31 73.46 10.25 73.7 10.12C73.95 9.97 74.14 9.79 74.27 9.54C74.41 9.3 74.48 9.02 74.48 8.7L74.48 7.89Q74.48 7.58 74.36 7.31Q74.32 7.21 74.27 7.12C74.14 6.89 73.95 6.71 73.7 6.58C73.46 6.44 73.18 6.37 72.86 6.37Q72.56 6.37 72.3 6.48Q72.01 6.6 71.78 6.85C71.49 7.17 71.34 7.62 71.34 8.2L71.34 8.39C71.34 9.02 71.49 9.5 71.78 9.83Q72.02 10.09 72.32 10.21Q72.57 10.31 72.86 10.31ZM81.96 10.31Q82.28 10.31 82.55 10.19Q82.82 10.07 83.04 9.83C83.33 9.5 83.48 9.02 83.48 8.39L83.48 8.2C83.48 7.62 83.33 7.17 83.04 6.85Q82.83 6.62 82.57 6.5Q82.29 6.37 81.96 6.37Q81.48 6.37 81.11 6.58C80.87 6.71 80.68 6.89 80.54 7.12C80.41 7.35 80.34 7.61 80.34 7.89L80.34 8.7C80.34 9.02 80.41 9.3 80.54 9.54C80.68 9.79 80.87 9.97 81.11 10.12Q81.48 10.31 81.96 10.31ZM35.1 6.39C34.82 6.39 34.56 6.45 34.32 6.56Q34.16 6.62 34.02 6.72L34.02 6.72Q33.84 6.85 33.71 7.04Q33.48 7.37 33.48 7.89L36.67 7.89C36.66 7.52 36.58 7.23 36.44 7.02C36.3 6.79 36.11 6.64 35.88 6.54Q35.53 6.39 35.1 6.39ZM46.1 6.39C45.83 6.39 45.57 6.45 45.32 6.56Q45.16 6.62 45.03 6.72Q44.85 6.85 44.71 7.04Q44.48 7.37 44.48 7.89L47.67 7.89C47.67 7.52 47.59 7.23 47.44 7.02Q47.32 6.82 47.14 6.69Q47.02 6.6 46.88 6.54Q46.53 6.39 46.1 6.39ZM55.06 10.29C55.33 10.29 55.59 10.24 55.84 10.12C56.09 9.99 56.3 9.79 56.46 9.5Q56.71 9.08 56.71 8.39L56.71 8.2C56.71 7.77 56.63 7.43 56.46 7.16C56.3 6.9 56.09 6.7 55.84 6.58C55.59 6.46 55.33 6.39 55.06 6.39C54.79 6.39 54.53 6.46 54.28 6.58C54.03 6.7 53.82 6.9 53.65 7.16Q53.41 7.56 53.41 8.2L53.41 8.39Q53.41 9.08 53.65 9.5C53.82 9.79 54.03 9.99 54.28 10.12C54.53 10.24 54.79 10.29 55.06 10.29ZM67.16 6.39C66.88 6.39 66.62 6.45 66.38 6.56C66.13 6.66 65.93 6.81 65.77 7.04C65.61 7.25 65.54 7.54 65.54 7.89L68.73 7.89C68.72 7.52 68.64 7.23 68.5 7.02C68.36 6.79 68.17 6.64 67.94 6.54C67.7 6.45 67.44 6.39 67.16 6.39Z" fill="#19191F" fill-opacity="0.600000" fill-rule="evenodd"/>
</svg>
